<?xml version="1.0" encoding="utf-8"?>
<!-- Generator: Adobe Illustrator 23.0.4, SVG Export Plug-In . SVG Version: 6.00 Build 0)  -->
<svg version="1.1" id="圖層_1" xmlns="http://www.w3.org/2000/svg" xmlns:xlink="http://www.w3.org/1999/xlink" x="0px" y="0px"
	 viewBox="0 0 28 22" style="enable-background:new 0 0 28 22;" xml:space="preserve">
<style type="text/css">
	.st0{opacity:0.9;}
	.st1{fill:#D9D9D9;}
</style>
<title>Combined Shape</title>
<desc>Created with Sketch.</desc>
<g id="Page-1" class="st0">
	<path id="Combined-Shape" class="st1" d="M14,4.4l10,8.1c0,0,0,0.1,0,0.1v8.2c0,0.3-0.1,0.6-0.3,0.8c-0.2,0.2-0.5,0.3-0.8,0.3h-6.7
		v-6.6h-4.4V22H5.1c-0.3,0-0.6-0.1-0.8-0.3C4.1,21.5,4,21.2,4,20.9v-8.2c0,0,0,0,0-0.1c0,0,0,0,0-0.1L14,4.4z M27.8,10.7
		c0.1,0.1,0.2,0.2,0.2,0.4c0,0.2,0,0.3-0.1,0.4l-1.1,1.3c-0.1,0.1-0.2,0.2-0.4,0.2h-0.1c-0.2,0-0.3,0-0.4-0.1L14,2.9L2,12.8
		c-0.1,0.1-0.3,0.1-0.4,0.1c-0.2,0-0.3-0.1-0.4-0.2l-1.1-1.3C0,11.4,0,11.2,0,11.1c0-0.2,0.1-0.3,0.2-0.4L12.7,0.4
		C13.1,0.1,13.5,0,14,0c0.5,0,0.9,0.1,1.3,0.4l4.2,3.5V0.6c0-0.2,0.1-0.3,0.2-0.4c0.1-0.1,0.2-0.2,0.4-0.2h3.3
		c0.2,0,0.3,0.1,0.4,0.2C24,0.3,24,0.4,24,0.6v7L27.8,10.7z"/>
</g>
</svg>
