<svg xmlns="http://www.w3.org/2000/svg" width="16" height="19" viewBox="0 0 16 19">
    <g fill="none" fill-rule="evenodd">
        <g fill="#AAA">
            <g>
                <g>
                    <g>
                        <g>
                            <g>
                                <path d="M13.874 1.8c.424-.355 1.054-.3 1.41.123l1.928 2.299c.328.39.31.964-.043 1.333l-2.856 2.992.032.037c1.95 2.323 1.646 5.8-.678 7.75-1.027.862-2.283 1.283-3.53 1.283-1.004 0-2.003-.272-2.877-.806v.026c-.058.665-.372 1.268-.883 1.697-.455.381-1.017.585-1.603.585-.074 0-.148-.003-.223-.01-.665-.058-1.268-.372-1.696-.883-.43-.51-.634-1.16-.576-1.825.06-.665.372-1.268.884-1.697.511-.43 1.161-.632 1.824-.576l.024.002c-.767-1.944-.376-4.219 1.14-5.806l.772-.807 1.342 1.6 1.532-1.286L8.512 6.3zM5.912 15.647c-.534-.628-1.475-.707-2.107-.177-.634.532-.717 1.478-.184 2.113.532.635 1.478.717 2.113.185.635-.533.717-1.479.185-2.113l.006.008-.006-.008zm8.605-13.08L9.92 6.421l.643.767c.355.423.3 1.054-.124 1.409L8.91 9.883c-.424.355-1.054.3-1.41-.123l-.624-.745c-1.564 1.636-1.678 4.222-.19 5.997l-.008-.009.008.01.008.008c1.599 1.895 4.432 2.14 6.332.545 1.903-1.597 2.152-4.435.554-6.339-.206-.246-.431-.463-.674-.653l3.54-3.71-1.928-2.298zM2.822 6.425l1.992.174.09.016c.228.063.386.281.365.526-.025.275-.268.479-.543.455l-1.991-.175c-.275-.024-.479-.267-.455-.542.024-.275.267-.478.542-.454zm2.284-3.26l.064.063 1.285 1.532c.178.212.15.527-.062.705-.188.158-.458.153-.64.002l-.064-.064-1.285-1.532c-.178-.211-.15-.527.061-.704.188-.158.458-.154.64-.002zM8.5 1.66c.275.024.479.267.455.542l-.174 1.992c-.022.245-.215.433-.452.455h-.09c-.276-.025-.48-.267-.455-.543l.175-1.991c.024-.275.266-.479.541-.455z" transform="translate(-439 -652) translate(190 150) translate(221 122) translate(10 303) translate(1 58) translate(15 18)"/>
                            </g>
                        </g>
                    </g>
                </g>
            </g>
        </g>
    </g>
</svg>
