<svg xmlns="http://www.w3.org/2000/svg" width="18" height="14" viewBox="0 0 18 14">
    <g fill="none" fill-rule="evenodd">
        <g fill="#AAA">
            <g>
                <g>
                    <g>
                        <g>
                            <g>
                                <path d="M18 15h-4v-4c0-.216-.023-.426-.056-.633-.008-.054-.018-.106-.028-.158-.04-.194-.088-.385-.155-.568l-.013-.042c-.071-.19-.161-.371-.26-.546-.027-.049-.054-.095-.083-.143-.108-.175-.225-.344-.358-.5l-.007-.01c-.027-.131-.04-.265-.04-.4 0-1.103.897-2 2-2s2 .897 2 2c0 .437-.138.852-.399 1.199l-.601.8.8.6c.763.573 1.2 1.448 1.2 2.401v2zm-5 1H7v-5l.002-.016c.001-.215.028-.425.073-.63.017-.079.046-.152.07-.228.038-.126.08-.252.134-.373.038-.082.084-.16.129-.238.062-.108.129-.213.204-.312.053-.07.106-.137.164-.202.13-.143.266-.283.425-.402l.799-.6-.601-.8C8.138 6.851 8 6.437 8 6c0-1.103.897-2 2-2s2 .897 2 2c0 .437-.138.852-.399 1.199l-.601.8.8.6c.159.12.295.259.425.403.057.064.11.131.162.199.076.101.144.207.207.316.044.077.089.153.126.234.056.124.099.252.138.383.022.073.051.142.067.217.046.211.075.427.075.649v5zm-7-1H2v-2c0-.952.437-1.828 1.201-2.401l.799-.6-.601-.8C3.138 8.851 3 8.437 3 8c0-1.103.897-2 2-2s2 .897 2 2c0 .136-.013.27-.04.4l-.007.01c-.133.156-.249.324-.357.5-.03.048-.057.095-.085.144-.096.173-.185.351-.255.538l-.02.058c-.064.179-.112.365-.151.555-.011.055-.021.11-.029.166-.033.203-.055.409-.055.621L6 11v4zm12-7c0-1.657-1.343-3-3-3-.781 0-1.486.306-2.021.795C12.873 4.236 11.587 3 10 3 8.414 3 7.128 4.236 7.021 5.795 6.487 5.306 5.782 5 5 5 3.343 5 2 6.343 2 8c0 .675.224 1.298.6 1.8-.972.73-1.6 1.891-1.6 3.2v2c0 .552.448 1 1 1h4c0 .552.448 1 1 1h6c.552 0 1-.448 1-1h4c.552 0 1-.448 1-1v-2c0-1.309-.628-2.47-1.6-3.2.377-.502.6-1.125.6-1.8z" transform="translate(-438 -768) translate(190 150) translate(221 122) translate(10 303) translate(1 172) translate(15 18)"/>
                            </g>
                        </g>
                    </g>
                </g>
            </g>
        </g>
    </g>
</svg>
